<?xml version="1.0" standalone="no"?>
<!DOCTYPE svg PUBLIC "-//W3C//DTD SVG 20010904//EN"
 "http://www.w3.org/TR/2001/REC-SVG-20010904/DTD/svg10.dtd">
<svg version="1.0" xmlns="http://www.w3.org/2000/svg"
 width="807.000000pt" height="599.000000pt" viewBox="0 0 807.000000 599.000000"
 preserveAspectRatio="xMidYMid meet">
<metadata>
Created by potrace 1.15, written by Peter Selinger 2001-2017
</metadata>
<g transform="translate(0.000000,599.000000) scale(0.100000,-0.100000)"
fill="#000000" stroke="none">
<path d="M1405 4864 c-179 -14 -303 -27 -320 -33 -11 -5 -33 -12 -50 -17 -23
-7 -37 -22 -60 -70 -16 -33 -71 -123 -122 -200 -108 -165 -214 -365 -277 -524
-28 -71 -70 -216 -110 -380 -36 -146 -86 -330 -111 -410 -79 -249 -158 -591
-254 -1100 -27 -146 -56 -312 -65 -370 -22 -152 -39 -522 -34 -765 4 -187 7
-221 31 -307 95 -355 260 -552 545 -651 71 -25 108 -31 199 -35 130 -5 174 3
289 57 181 85 366 244 472 406 129 197 300 581 479 1080 35 99 71 187 79 196
8 9 34 27 58 39 l42 23 73 -57 c84 -65 187 -117 281 -142 90 -25 300 -25 390
-1 92 24 236 98 297 151 l51 46 164 0 c129 0 168 -3 184 -15 29 -22 751 -22
780 0 15 11 55 14 187 15 l169 0 43 -37 c94 -83 224 -144 358 -170 97 -18 249
-13 342 12 89 24 212 87 284 146 l65 52 42 -23 c24 -12 49 -30 57 -39 9 -9 45
-99 82 -201 189 -521 343 -868 477 -1073 111 -168 289 -322 472 -408 115 -54
159 -62 289 -57 91 4 128 10 199 35 277 96 438 280 533 608 51 179 57 243 45
582 -13 389 -22 488 -71 753 -121 659 -191 961 -323 1385 -19 61 -55 202 -81
315 -28 122 -65 251 -91 319 -63 161 -183 392 -286 548 -49 73 -99 156 -111
185 -13 29 -31 59 -40 66 -86 71 -905 97 -1117 35 -30 -9 -72 -30 -93 -47
l-39 -31 -224 -3 c-153 -3 -224 -7 -224 -15 0 -6 -10 -1 -23 11 l-23 22 -1281
0 c-1280 0 -1280 0 -1307 -21 -14 -11 -26 -16 -26 -10 0 8 -64 11 -197 11
-212 0 -256 7 -302 46 -41 34 -114 51 -277 63 -126 10 -417 12 -519 5z m5201
-489 c181 -53 246 -293 120 -442 -88 -104 -272 -113 -384 -18 -83 69 -112 216
-64 315 31 64 91 119 154 141 65 22 109 24 174 4z m-538 -591 c194 -97 202
-375 13 -478 -138 -75 -306 -23 -375 116 -49 99 -28 234 50 312 78 78 213 99
312 50z m1142 5 c93 -42 149 -122 158 -225 9 -114 -43 -210 -142 -262 -42 -22
-64 -26 -126 -26 -62 0 -84 4 -126 26 -99 52 -151 148 -142 262 12 146 121
246 268 246 44 0 80 -7 110 -21z m-562 -583 c95 -49 142 -127 142 -241 0 -160
-106 -265 -264 -265 -114 1 -193 47 -241 140 -62 123 -30 262 80 346 76 58
193 66 283 20z m-2591 -741 c21 -9 41 -21 45 -28 14 -22 9 -75 -8 -81 -24 -9
-34 2 -34 39 0 19 -4 37 -10 40 -6 4 -10 -15 -10 -49 l0 -55 28 8 c39 10 97
-1 97 -18 0 -20 -109 -63 -140 -55 -14 3 -25 10 -25 15 0 4 -24 9 -52 11 -39
2 -53 7 -53 18 0 8 22 23 53 35 l52 20 0 57 c0 33 4 58 10 58 6 0 27 -7 47
-15z"/>
<path d="M6425 4346 c-127 -56 -183 -216 -120 -343 54 -108 176 -157 299 -121
55 16 140 101 155 154 48 174 -61 325 -236 324 -37 -1 -81 -7 -98 -14z"/>
<path d="M5880 3781 c-170 -52 -235 -253 -127 -394 38 -51 120 -90 186 -91 75
0 126 19 177 66 134 124 88 353 -83 414 -41 14 -114 17 -153 5z"/>
<path d="M7016 3776 c-100 -37 -161 -127 -161 -236 1 -142 103 -244 245 -244
251 0 342 332 125 460 -56 33 -150 42 -209 20z"/>
<path d="M6415 3189 c-57 -30 -83 -57 -112 -113 -21 -42 -24 -60 -21 -121 3
-59 9 -81 33 -121 83 -133 272 -154 384 -43 111 112 90 301 -43 384 -42 25
-61 30 -125 33 -62 2 -84 -2 -116 -19z"/>
</g>
</svg>
