<?xml version="1.0" standalone="no"?>
<!DOCTYPE svg PUBLIC "-//W3C//DTD SVG 20010904//EN"
 "http://www.w3.org/TR/2001/REC-SVG-20010904/DTD/svg10.dtd">
<svg version="1.0" xmlns="http://www.w3.org/2000/svg"
 width="179.000000pt" height="105.000000pt" viewBox="0 0 179.000000 105.000000"
 preserveAspectRatio="xMidYMid meet">
<metadata>
Created by potrace 1.15, written by Peter Selinger 2001-2017
</metadata>
<g transform="translate(0.000000,105.000000) scale(0.100000,-0.100000)"
fill="#000000" stroke="none">
<path d="M838 1041 c-31 -3 -62 -11 -68 -17 -36 -36 -36 -272 0 -316 17 -22
25 -23 168 -23 l149 0 48 40 c94 76 125 111 125 138 0 19 -20 44 -82 101 -80
73 -84 76 -133 76 -27 0 -72 2 -100 4 -27 2 -76 1 -107 -3z"/>
<path d="M76 958 l-76 -81 0 -153 c0 -202 -4 -198 199 -192 156 4 153 2 159
147 7 172 2 189 -79 282 -94 106 -102 106 -203 -3z"/>
<path d="M411 1027 c-35 -17 -43 -61 -39 -208 l3 -127 71 -78 c99 -110 108
-110 208 -2 l76 83 0 140 c0 77 -3 150 -6 162 -4 12 -19 26 -36 32 -43 15
-247 14 -277 -2z"/>
<path d="M1363 969 c-81 -69 -103 -103 -86 -132 13 -24 146 -138 171 -148 27
-10 255 -10 292 0 35 9 49 57 49 166 1 113 -12 163 -45 175 -14 6 -87 10 -162
10 l-137 0 -82 -71z"/>
</g>
</svg>
