<?xml version="1.0" standalone="no"?>
<!DOCTYPE svg PUBLIC "-//W3C//DTD SVG 20010904//EN"
 "http://www.w3.org/TR/2001/REC-SVG-20010904/DTD/svg10.dtd">
<svg version="1.0" xmlns="http://www.w3.org/2000/svg"
 width="286.000000pt" height="94.000000pt" viewBox="0 0 286.000000 94.000000"
 preserveAspectRatio="xMidYMid meet">
<metadata>
Created by potrace 1.15, written by Peter Selinger 2001-2017
</metadata>
<g transform="translate(0.000000,94.000000) scale(0.100000,-0.100000)"
fill="#000000" stroke="none">
<path d="M318 921 c-144 -46 -260 -165 -302 -310 -9 -31 -16 -92 -16 -141 0
-173 73 -312 211 -401 146 -94 372 -94 518 0 138 89 211 228 211 402 0 219
-128 394 -329 453 -75 22 -219 20 -293 -3z"/>
<path d="M2247 563 c-4 -3 -7 -46 -7 -95 0 -81 2 -88 20 -88 16 0 20 7 20 35
0 33 2 35 35 35 36 0 38 -3 49 -52 4 -16 13 -28 21 -28 19 0 21 70 3 88 -9 9
-9 15 0 24 19 19 14 55 -10 72 -22 16 -118 22 -131 9z"/>
</g>
</svg>
