<?xml version="1.0" standalone="no"?>
<!DOCTYPE svg PUBLIC "-//W3C//DTD SVG 20010904//EN"
 "http://www.w3.org/TR/2001/REC-SVG-20010904/DTD/svg10.dtd">
<svg version="1.0" xmlns="http://www.w3.org/2000/svg"
 width="201.000000pt" height="91.000000pt" viewBox="0 0 201.000000 91.000000"
 preserveAspectRatio="xMidYMid meet">
<metadata>
Created by potrace 1.15, written by Peter Selinger 2001-2017
</metadata>
<g transform="translate(0.000000,91.000000) scale(0.100000,-0.100000)"
fill="#000000" stroke="none">
<path d="M433 891 c-103 -38 -190 -116 -242 -218 -48 -96 -105 -292 -170 -587
l-19 -89 96 6 c53 4 169 12 257 18 148 9 512 0 613 -17 l32 -5 0 48 c0 51 -13
212 -31 383 -23 220 -118 367 -293 455 -63 31 -165 34 -243 6z"/>
<path d="M1345 889 c-65 -35 -154 -108 -187 -153 -44 -59 -85 -153 -97 -222
-12 -71 -41 -394 -41 -465 l0 -50 33 5 c17 3 127 11 242 16 204 11 250 10 623
-16 85 -6 92 -6 92 11 0 28 -68 316 -106 448 -67 232 -138 338 -275 408 -56
28 -76 33 -154 36 -77 3 -96 0 -130 -18z"/>
</g>
</svg>
