<?xml version="1.0" standalone="no"?>
<!DOCTYPE svg PUBLIC "-//W3C//DTD SVG 20010904//EN"
 "http://www.w3.org/TR/2001/REC-SVG-20010904/DTD/svg10.dtd">
<svg version="1.0" xmlns="http://www.w3.org/2000/svg"
 width="806.000000pt" height="599.000000pt" viewBox="0 0 806.000000 599.000000"
 preserveAspectRatio="xMidYMid meet">
<metadata>
Created by potrace 1.15, written by Peter Selinger 2001-2017
</metadata>
<g transform="translate(0.000000,599.000000) scale(0.100000,-0.100000)"
fill="#000000" stroke="none">
<path d="M1513 5971 c-91 -33 -177 -105 -230 -191 -44 -73 -121 -327 -177
-589 l-25 -114 97 7 c376 25 415 26 622 16 118 -5 230 -13 249 -16 l34 -5 -7
118 c-14 235 -36 411 -59 476 -46 127 -139 231 -261 292 -63 31 -165 34 -243
6z"/>
<path d="M6303 5971 c-151 -71 -268 -229 -293 -396 -11 -80 -40 -408 -40 -461
0 -36 0 -36 38 -30 20 3 132 10 247 16 200 10 279 8 613 -16 86 -7 92 -6 92
12 0 31 -66 309 -105 444 -50 174 -92 258 -162 328 -83 82 -156 115 -263 119
-69 3 -93 0 -127 -16z"/>
<path d="M1444 5036 c-133 -22 -301 -83 -343 -125 -13 -13 -21 -34 -21 -54 0
-30 -4 -34 -37 -43 -34 -8 -42 -16 -73 -80 -19 -39 -69 -122 -112 -185 -179
-268 -307 -549 -364 -804 -43 -190 -81 -334 -134 -505 -87 -279 -177 -679
-280 -1239 -48 -261 -57 -343 -70 -621 -21 -455 -11 -589 59 -798 88 -262 206
-404 424 -508 117 -55 221 -77 346 -72 98 3 113 7 197 44 200 89 390 248 502
419 135 205 322 628 489 1105 30 85 62 163 71 174 17 18 84 56 99 56 5 0 33
-20 63 -45 73 -60 188 -119 286 -147 101 -28 282 -31 389 -4 94 23 217 84 293
145 l62 51 175 0 c110 0 175 -4 175 -10 0 -6 137 -10 390 -10 253 0 390 4 390
10 0 6 65 10 176 10 l176 0 51 -45 c61 -54 205 -127 297 -151 89 -24 291 -24
380 0 92 24 236 97 297 151 28 25 57 45 64 45 20 0 98 -49 108 -69 6 -10 40
-101 76 -202 182 -502 338 -852 471 -1057 132 -202 355 -379 571 -451 84 -28
220 -28 329 -1 98 25 240 95 317 155 134 106 247 321 303 575 19 86 20 242 4
620 -13 292 -21 361 -70 631 -101 552 -194 965 -275 1224 -64 204 -77 251
-129 471 -24 104 -56 223 -71 264 -67 185 -203 448 -313 605 -31 44 -74 116
-96 160 -38 73 -44 81 -81 91 -38 10 -40 13 -45 55 -5 43 -7 45 -67 75 -153
76 -328 109 -528 100 -140 -6 -286 -32 -350 -62 -40 -19 -40 -20 -43 -81 -3
-66 -2 -64 -68 -78 -17 -3 -42 -17 -55 -31 -35 -37 -78 -44 -296 -44 -138 0
-203 -3 -203 -11 0 -6 -12 -1 -26 10 -27 21 -27 21 -1299 21 -1272 0 -1272 0
-1299 -21 -14 -11 -26 -16 -26 -10 0 8 -65 11 -202 11 -218 0 -262 7 -297 44
-13 14 -45 30 -72 36 l-49 12 0 58 c0 34 -5 62 -12 68 -73 59 -438 99 -624 68z
m4896 -1811 l0 -285 -45 0 c-42 0 -45 2 -45 26 l0 26 -31 -26 c-38 -32 -68
-40 -121 -33 -87 12 -140 86 -140 196 0 114 56 193 145 206 45 7 113 -13 129
-38 4 -7 8 39 8 101 l0 112 50 0 50 0 0 -285z m-4334 240 c62 -18 116 -63 143
-118 31 -64 30 -193 -3 -262 -25 -54 -71 -100 -122 -121 -54 -22 -165 -36
-241 -28 l-73 6 0 263 c0 243 1 264 18 268 43 11 231 6 278 -8z m3404 -80 l0
-55 45 0 45 0 0 -40 0 -40 -45 0 -45 0 0 -110 c0 -98 2 -110 19 -120 11 -5 29
-10 40 -10 14 0 21 -9 26 -31 9 -39 -4 -49 -67 -49 -39 0 -54 6 -80 29 l-33
29 -3 131 -4 131 -29 0 c-27 0 -29 2 -29 40 0 38 2 40 30 40 29 0 30 2 30 44
0 42 1 44 38 54 62 17 62 17 62 -43z m-2725 -61 c12 -5 15 -14 10 -33 -10 -39
-19 -44 -60 -32 -40 11 -79 1 -88 -22 -9 -23 7 -37 74 -71 50 -24 68 -39 83
-69 16 -33 17 -45 7 -77 -7 -23 -24 -48 -42 -60 -37 -27 -127 -37 -187 -21
-42 12 -43 13 -36 44 9 46 9 46 60 29 51 -17 89 -10 107 20 15 23 -6 45 -68
73 -65 28 -95 65 -95 116 0 46 37 94 83 109 32 9 120 6 152 -6z m387 -2 c5 -5
6 -22 2 -39 -6 -30 -6 -30 -70 -29 -58 1 -66 -2 -94 -30 -40 -40 -49 -96 -25
-148 24 -50 65 -70 131 -63 52 5 53 5 59 -25 10 -45 -5 -53 -99 -53 -73 0 -87
3 -123 27 -60 39 -87 102 -81 183 8 99 60 163 152 186 35 9 137 2 148 -9z
m310 8 c87 -24 132 -91 132 -195 0 -79 -16 -118 -63 -158 -42 -35 -94 -50
-156 -45 -95 8 -160 74 -172 175 -18 156 108 264 259 223z m503 -14 c53 -35
60 -58 63 -223 l4 -153 -51 0 -51 0 0 125 c0 137 -11 178 -52 189 -33 8 -34 8
-67 -20 l-31 -26 0 -134 0 -134 -50 0 -50 0 0 173 c0 94 -3 182 -6 195 -6 20
-3 22 40 22 42 0 46 -2 46 -25 0 -14 5 -25 10 -25 6 0 10 5 10 10 0 6 19 20
43 31 48 22 103 20 142 -5z m440 10 c64 -27 75 -60 75 -233 l0 -153 -45 0 -45
0 -1 118 c-1 137 -6 159 -40 184 -34 26 -75 15 -100 -26 -16 -26 -19 -51 -19
-153 l0 -123 -50 0 -50 0 0 195 0 195 45 0 c42 0 45 -2 45 -27 l0 -26 24 22
c42 39 105 50 161 27z m444 -14 c39 -27 71 -98 71 -154 l0 -48 -130 0 c-74 0
-130 -4 -130 -9 0 -28 23 -62 51 -77 25 -12 50 -15 105 -12 l73 5 6 -29 c8
-36 7 -37 -42 -49 -115 -26 -220 7 -263 83 -45 80 -26 213 37 270 55 50 168
60 222 20z m433 10 c4 -4 4 -21 -1 -37 -7 -29 -10 -30 -58 -27 -88 6 -143 -41
-143 -123 0 -84 57 -131 146 -122 l52 5 5 -31 c3 -18 1 -36 -3 -40 -13 -15
-123 -20 -166 -8 -88 24 -134 90 -134 193 1 133 95 215 235 203 32 -3 63 -9
67 -13z m608 -4 c56 -29 80 -71 87 -148 l6 -60 -132 0 c-126 0 -131 -1 -131
-21 0 -11 14 -34 30 -51 30 -30 32 -30 115 -26 l83 4 6 -30 c8 -36 -2 -43 -72
-52 -71 -9 -137 1 -178 26 -123 76 -104 300 30 361 55 25 102 24 156 -3z
m-3450 -183 l0 -195 -50 0 -50 0 0 195 0 195 50 0 50 0 0 -195z"/>
<path d="M6107 3249 c-67 -39 -60 -203 9 -229 42 -16 64 -12 95 19 26 27 29
36 29 96 0 60 -3 69 -29 96 -31 30 -71 37 -104 18z"/>
<path d="M1815 3388 c-3 -7 -4 -95 -3 -193 l3 -180 61 1 c119 2 185 67 192
189 4 69 -23 135 -71 169 -36 26 -173 37 -182 14z"/>
<path d="M3257 3231 c-82 -98 6 -285 101 -214 42 31 53 61 49 130 -4 79 -31
113 -88 113 -29 0 -43 -7 -62 -29z"/>
</g>
</svg>
