<?xml version="1.0" standalone="no"?>
<!DOCTYPE svg PUBLIC "-//W3C//DTD SVG 20010904//EN"
 "http://www.w3.org/TR/2001/REC-SVG-20010904/DTD/svg10.dtd">
<svg version="1.0" xmlns="http://www.w3.org/2000/svg"
 width="225.000000pt" height="114.000000pt" viewBox="0 0 225.000000 114.000000"
 preserveAspectRatio="xMidYMid meet">
<metadata>
Created by potrace 1.15, written by Peter Selinger 2001-2017
</metadata>
<g transform="translate(0.000000,114.000000) scale(0.100000,-0.100000)"
fill="#000000" stroke="none">
<path d="M192 1126 c-83 -27 -152 -92 -181 -169 -6 -16 -11 -61 -11 -101 0
-116 47 -192 154 -249 56 -30 172 -30 236 -1 167 77 212 298 90 437 -70 79
-192 114 -288 83z"/>
<path d="M777 1130 c-140 -35 -226 -153 -215 -294 3 -34 15 -80 26 -103 103
-202 396 -203 496 -1 21 42 26 66 26 127 0 90 -20 140 -75 196 -66 65 -172 96
-258 75z"/>
<path d="M1312 1122 c-73 -26 -122 -69 -157 -136 -69 -136 -16 -305 118 -372
177 -90 387 22 404 216 19 203 -177 359 -365 292z"/>
<path d="M1879 1125 c-56 -18 -132 -83 -162 -139 -31 -58 -31 -193 0 -251 107
-201 398 -203 497 -3 53 106 26 264 -56 333 -77 65 -188 89 -279 60z"/>
<path d="M238 529 c-168 -25 -261 -225 -173 -374 85 -147 293 -166 405 -39 46
53 60 93 60 172 0 59 -4 75 -32 122 -55 92 -150 135 -260 119z m130 -186 l-62
-63 63 -64 c43 -43 59 -66 51 -71 -8 -5 -35 15 -73 54 l-62 61 -62 -62 c-49
-49 -65 -60 -75 -50 -10 10 1 26 50 75 l62 63 -60 59 c-40 39 -56 63 -50 69 7
7 30 -10 70 -49 l60 -60 62 62 c49 49 65 60 76 51 10 -9 1 -24 -50 -75z"/>
<path d="M804 530 c-79 -11 -145 -63 -188 -148 -21 -42 -23 -146 -3 -194 36
-87 138 -158 228 -158 182 0 311 189 238 350 -49 110 -154 167 -275 150z m143
-86 c44 -26 93 -106 93 -153 0 -109 -91 -201 -198 -201 -56 0 -138 55 -168
112 -18 34 -18 119 0 161 30 70 122 122 196 110 19 -3 54 -16 77 -29z"/>
<path d="M785 426 c-56 -25 -95 -85 -95 -144 1 -45 35 -107 72 -130 49 -30
124 -30 168 1 94 62 98 194 9 258 -39 27 -112 35 -154 15z"/>
<path d="M1934 530 c-79 -11 -145 -63 -188 -148 -21 -42 -23 -146 -3 -194 36
-87 138 -158 228 -158 182 0 311 189 238 350 -49 110 -154 167 -275 150z m142
-215 c41 -72 74 -134 74 -138 0 -4 -79 -7 -176 -7 -97 0 -174 4 -172 8 2 4 41
74 88 155 76 131 86 145 98 130 7 -10 47 -77 88 -148z"/>
<path d="M1920 318 c-29 -51 -55 -96 -57 -100 -2 -5 50 -8 115 -8 l120 0 -56
100 c-32 54 -60 99 -63 100 -4 0 -30 -42 -59 -92z"/>
<path d="M1314 516 c-118 -52 -180 -192 -140 -314 19 -55 75 -121 127 -148 51
-26 140 -30 195 -9 218 83 225 381 11 470 -45 18 -151 19 -193 1z m246 -231
l0 -145 -145 0 -145 0 0 145 0 145 145 0 145 0 0 -145z"/>
<path d="M1300 285 l0 -115 115 0 116 0 -3 113 -3 112 -112 3 -113 3 0 -116z"/>
</g>
</svg>
