<?xml version="1.0" standalone="no"?>
<!DOCTYPE svg PUBLIC "-//W3C//DTD SVG 20010904//EN"
 "http://www.w3.org/TR/2001/REC-SVG-20010904/DTD/svg10.dtd">
<svg version="1.0" xmlns="http://www.w3.org/2000/svg"
 width="264.000000pt" height="153.000000pt" viewBox="0 0 264.000000 153.000000"
 preserveAspectRatio="xMidYMid meet">
<metadata>
Created by potrace 1.15, written by Peter Selinger 2001-2017
</metadata>
<g transform="translate(0.000000,153.000000) scale(0.100000,-0.100000)"
fill="#000000" stroke="none">
<path d="M30 1517 l-25 -13 -3 -695 -2 -696 22 -33 c13 -19 39 -43 58 -54 35
-21 42 -21 1240 -21 1198 0 1205 0 1240 21 19 11 45 35 57 54 l23 33 0 687 c0
577 -2 689 -14 706 -14 19 -40 19 -1293 21 -1018 2 -1283 0 -1303 -10z"/>
</g>
</svg>
